<svg xmlns="http://www.w3.org/2000/svg" xmlns:xlink="http://www.w3.org/1999/xlink" width="2000" height="1000" viewBox="0 0 2000 1000">
  <defs>
    <style>
      .cls-1 {
        fill: #fff;
      }

      .cls-1, .cls-2, .cls-3 {
        fill-rule: evenodd;
      }

      .cls-2 {
        fill: url(#linear-gradient);
      }

      .cls-3 {
        fill: url(#linear-gradient-2);
      }
    </style>
    <linearGradient id="linear-gradient" x1="9492.66" y1="1942.873" x2="9290.66" y2="1939.347" gradientUnits="userSpaceOnUse">
      <stop offset="0" stop-color="#0035ff"/>
      <stop offset="1" stop-color="#4cc1ff"/>
    </linearGradient>
    <linearGradient id="linear-gradient-2" x1="9492.66" y1="1942.312" x2="9354.91" y2="1939.908" gradientUnits="userSpaceOnUse">
      <stop offset="0" stop-color="#4cc1ff"/>
      <stop offset="1" stop-color="#0035ff"/>
    </linearGradient>
  </defs>
  <g id="Монтажная_область_1" data-name="Монтажная область 1">
    <path id="GRAIDEX" class="cls-1" d="M9132.48,1929.7h-59.09v27.73h24.48v32.87c-2.82,1.39-9.41,2.33-17.65,2.33-29.43,0-49.91-19.11-49.91-51.51,0-34.03,22.6-50.81,52.5-50.81,17.42,0,28.25,3.03,36.96,6.76l7.53-28.43c-7.77-3.73-23.54-7.69-44.02-7.69-52.03,0-90.4,29.83-90.64,82.03-0.23,23.08,7.77,43.59,22.37,57.11,14.59,13.98,35.54,21.2,64.5,21.2,20.95,0,41.9-5.12,52.97-8.85V1929.7Zm28.01,89.96h35.55V1957.9h10.83c14.59,0.23,21.42,5.59,25.66,25.17,4.71,19.35,8.47,32.16,11.06,36.59h36.73c-3.06-6.06-8.01-26.57-12.95-44.28-4-14.45-10.12-24.94-21.19-29.37v-0.69c13.66-4.9,28.02-18.65,28.02-38.69,0-14.45-5.18-25.41-14.6-32.87-11.3-8.85-27.78-12.35-51.32-12.35-19.07,0-36.25,1.4-47.79,3.27v154.98Zm35.55-130.75a91.214,91.214,0,0,1,16.24-1.16c16.48,0.23,26.37,7.46,26.37,21.91,0,13.75-10.59,22.6-28.49,22.6h-14.12v-43.35Zm188.56,90.43,12.24,40.32h38.61l-49.2-157.08h-47.08l-48.5,157.08h37.2l11.3-40.32h45.43Zm-40.25-26.57,9.41-33.32c2.59-9.09,4.95-20.98,7.3-30.3h0.47c2.36,9.32,5.18,20.97,8.01,30.3l9.88,33.32h-35.07Zm112.29-90.19v157.08h36.02V1862.58h-36.02Zm67.09,156.38a313.056,313.056,0,0,0,40.73,2.33c31.07,0,56.49-6.52,73.21-20.27,15.3-12.82,26.37-33.56,26.37-63.63,0-27.73-10.36-47.08-26.84-59.2-15.3-11.42-34.84-16.78-64.98-16.78-18.12,0-35.31,1.17-48.49,3.27v154.28Zm36.02-128.88a75.238,75.238,0,0,1,16.24-1.4c30.84,0,50.14,17.25,49.91,49.88,0,37.52-21.19,55.23-53.68,55-4.47,0-9.41,0-12.47-.7V1890.08Zm222.23,34.26H9723.6v-32.63h61.91v-29.13h-97.93v157.08h101.23v-29.13H9723.6v-37.29h58.38v-28.9Zm156.32,95.32-47.09-80.4,44.73-76.68h-40.96l-13.42,28.66c-4,9.09-7.06,16.09-10.83,26.11h-0.47c-3.77-8.86-7.3-16.55-12.01-26.11l-13.88-28.66h-41.2l44.26,77.61-45.91,79.47h40.96l13.19-28.43c4.94-10.96,8.94-19.11,12.24-28.2h0.47c4.47,9.09,8.24,17.24,14.12,28.2l14.36,28.43h41.44Z" transform="translate(-8466 -1441)"/>
    <path id="GRAIDEX-2" data-name="GRAIDEX" class="cls-2" d="M8992.64,1942.98m391.96,36.36,12.24,40.32h38.61l-49.2-157.08h-47.08l-48.5,157.08h37.2l11.3-40.32h45.43Zm-40.25-26.57,9.41-33.32c2.59-9.09,4.95-20.98,7.3-30.3h0.47c2.36,9.32,5.18,20.97,8.01,30.3l9.88,33.32h-35.07Zm112.29-90.19v157.08h36.02V1862.58h-36.02Z" transform="translate(-8466 -1441)"/>
    <path id="GRAIDEX-3" data-name="GRAIDEX" class="cls-3" d="M8992.64,1942.98m391.96,36.36s2.86,9.42,5.81,19.15c3.16,10.4,6.43,21.17,6.43,21.17h38.61l-49.2-157.08h-31.33m14.62,56.87L9370,1920m86.64-57.42v157.08h36.02" transform="translate(-8466 -1441)"/>
  </g>
</svg>
