<svg xmlns="http://www.w3.org/2000/svg" xmlns:xlink="http://www.w3.org/1999/xlink" width="946" height="168" viewBox="0 0 946 168">
  <defs>
    <style>
      .cls-1 {
        fill: #010155;
      }

      .cls-1, .cls-2, .cls-3 {
        fill-rule: evenodd;
      }

      .cls-2 {
        fill: url(#linear-gradient);
      }

      .cls-3 {
        fill: url(#linear-gradient-2);
      }
    </style>
    <linearGradient id="linear-gradient" x1="11592.7" y1="1942.873" x2="11390.7" y2="1939.347" gradientUnits="userSpaceOnUse">
      <stop offset="0" stop-color="#0035ff"/>
      <stop offset="1" stop-color="#4cc1ff"/>
    </linearGradient>
    <linearGradient id="linear-gradient-2" x1="11592.7" y1="1942.313" x2="11454.9" y2="1939.907" gradientUnits="userSpaceOnUse">
      <stop offset="0" stop-color="#4cc1ff"/>
      <stop offset="1" stop-color="#0035ff"/>
    </linearGradient>
  </defs>
  <g id="Монтажная_область_1" data-name="Монтажная область 1">
    <path id="GRAIDEX" class="cls-1" d="M11232.5,1929.7h-59.1v27.73h24.5v32.87c-2.9,1.39-9.4,2.33-17.7,2.33-29.4,0-49.9-19.11-49.9-51.51,0-34.03,22.6-50.81,52.5-50.81,17.4,0,28.3,3.03,37,6.76l7.5-28.43c-7.8-3.73-23.5-7.69-44-7.69-52,0-90.4,29.83-90.7,82.03-0.2,23.08,7.8,43.59,22.4,57.11,14.6,13.98,35.6,21.2,64.5,21.2,21,0,41.9-5.12,53-8.85V1929.7Zm28,89.96h35.5V1957.9h10.9c14.6,0.23,21.4,5.59,25.6,25.17,4.7,19.35,8.5,32.16,11.1,36.59h36.7c-3-6.06-8-26.57-12.9-44.28-4-14.45-10.2-24.94-21.2-29.37v-0.69c13.6-4.9,28-18.65,28-38.69,0-14.45-5.2-25.41-14.6-32.87-11.3-8.85-27.8-12.35-51.3-12.35-19.1,0-36.3,1.4-47.8,3.27v154.98Zm35.5-130.75a92.3,92.3,0,0,1,16.3-1.16c16.5,0.23,26.3,7.46,26.3,21.91,0,13.75-10.5,22.6-28.4,22.6H11296v-43.35Zm188.6,90.43,12.2,40.32h38.7l-49.2-157.08h-47.1l-48.5,157.08h37.2l11.3-40.32h45.4Zm-40.3-26.57,9.5-33.33c2.6-9.08,4.9-20.97,7.3-30.29h0.4c2.4,9.32,5.2,20.97,8,30.29l9.9,33.33h-35.1Zm112.3-90.19v157.08h36.1V1862.58h-36.1Zm67.1,156.38a314.958,314.958,0,0,0,40.8,2.33c31,0,56.5-6.52,73.2-20.27,15.3-12.82,26.3-33.56,26.3-63.63,0-27.73-10.3-47.08-26.8-59.2-15.3-11.42-34.8-16.78-65-16.78-18.1,0-35.3,1.17-48.5,3.27v154.28Zm36-128.88a76.216,76.216,0,0,1,16.3-1.4c30.8,0,50.1,17.25,49.9,49.88,0,37.52-21.2,55.23-53.7,55-4.4,0-9.4,0-12.5-.7V1890.08Zm222.3,34.26h-58.4v-32.63h61.9v-29.13h-97.9v157.08h101.2v-29.13h-65.2v-37.29h58.4v-28.9Zm156.3,95.32-47.1-80.4,44.7-76.68H11995l-13.4,28.66c-4,9.09-7.1,16.09-10.9,26.11h-0.4c-3.8-8.86-7.3-16.55-12-26.11l-13.9-28.66h-41.2l44.2,77.61-45.9,79.47h41l13.2-28.43c4.9-10.96,8.9-19.11,12.2-28.2h0.5c4.4,9.09,8.2,17.24,14.1,28.2l14.4,28.43h41.4Z" transform="translate(-11093 -1857)"/>
    <path id="GRAIDEX-2" data-name="GRAIDEX" class="cls-2" d="M11092.6,1942.98m392,36.36,12.2,40.32h38.7l-49.2-157.08h-47.1l-48.5,157.08h37.2l11.3-40.32h45.4Zm-40.3-26.57,9.5-33.33c2.6-9.08,4.9-20.97,7.3-30.29h0.4c2.4,9.32,5.2,20.97,8,30.29l9.9,33.33h-35.1Zm112.3-90.19v157.08h36.1V1862.58h-36.1Z" transform="translate(-11093 -1857)"/>
    <path id="GRAIDEX-3" data-name="GRAIDEX" class="cls-3" d="M11092.6,1942.98m392,36.36s2.9,9.42,5.8,19.15c3.2,10.4,6.4,21.17,6.4,21.17h38.7l-49.2-157.08h-31.4m14.6,56.86,0.5,0.56m86.6-57.42v157.08h36.1" transform="translate(-11093 -1857)"/>
  </g>
</svg>
